<?xml version="1.0" encoding="utf-8"?>
<!-- Generator: Adobe Illustrator 24.3.0, SVG Export Plug-In . SVG Version: 6.00 Build 0)  -->
<svg fill="currentColor" version="1.1" id="레이어_1" xmlns="http://www.w3.org/2000/svg" xmlns:xlink="http://www.w3.org/1999/xlink" x="0px"
	 y="0px" viewBox="0 0 183 75" style="enable-background:new 0 0 183 75;" xml:space="preserve">
<!-- <style type="text/css">
	.st0{fill:{#0069bb};}
</style> -->
<g>
	<g>
		<g>
			<path class="st0" d="M29.8,61.8C16.5,61.8,5.6,51,5.6,37.6s10.8-24.2,24.2-24.2c1,0,1.7,0.8,1.7,1.7c0,1-0.8,1.7-1.7,1.7
				c-11.4,0-20.7,9.3-20.7,20.7s9.3,20.7,20.7,20.7s20.7-9.3,20.7-20.7c0-1,0.8-1.7,1.7-1.7c1,0,1.7,0.8,1.7,1.7
				C54,51,43.2,61.8,29.8,61.8z"/>
		</g>
		<g>
			<path class="st0" d="M29.8,61.8C16.5,61.8,5.6,51,5.6,37.6s10.8-24.2,24.2-24.2c1,0,1.7,0.8,1.7,1.7c0,1-0.8,1.7-1.7,1.7
				c-11.4,0-20.7,9.3-20.7,20.7s9.3,20.7,20.7,20.7s20.7-9.3,20.7-20.7c0-1,0.8-1.7,1.7-1.7c1,0,1.7,0.8,1.7,1.7
				C54,51,43.2,61.8,29.8,61.8z"/>
		</g>
		<g>
			<path class="st0" d="M29.8,73.9c-9.3,0-18.6-3.5-25.6-10.6c-0.7-0.7-0.7-1.8,0-2.4c0.7-0.7,1.8-0.7,2.4,0
				c12.8,12.8,33.6,12.8,46.4,0C65.8,48,65.8,27.2,53,14.4s-33.6-12.8-46.4,0c-0.7,0.7-1.8,0.7-2.4,0c-0.7-0.7-0.7-1.8,0-2.4
				C18.3-2.2,41.3-2.2,55.5,12c14.1,14.1,14.1,37.2,0,51.3C48.4,70.4,39.1,73.9,29.8,73.9z"/>
		</g>
		<g>
			<path class="st0" d="M30.1,49.1c-6.2,0-11.2-5-11.2-11.2s5-11.2,11.2-11.2s11.2,5,11.2,11.2S36.3,49.1,30.1,49.1z M30.1,30.2
				c-4.3,0-7.7,3.5-7.7,7.7s3.5,7.7,7.7,7.7c4.3,0,7.7-3.5,7.7-7.7S34.4,30.2,30.1,30.2z"/>
		</g>
	</g>
	<g>
		<path class="st0" d="M94.3,43.7c-0.2-0.1-0.5-0.2-0.7-0.2c-0.2,0-0.3,0-0.4,0.1l0,0c0,0-0.1,0-0.1,0c0,0-0.1,0-0.1,0
			c-1.5,0.5-3.2,0.8-5.1,0.8c-4.3,0-6.4-1.7-6.7-5.4h12.2c0,0,0,0,0,0s0,0,0,0c1,0,1.7-0.8,1.8-1.7c0,0,0,0,0-0.1c0,0,0,0,0,0
			c0-0.1,0-0.2,0-0.3c0-7.6-4.6-9.2-8.4-9.2c-6,0-9.2,3.4-9.2,9.9c0,6.7,3.6,10.3,10.4,10.3c2.2,0,4.2-0.3,5.9-0.9l0.5-0.2l0.1,0
			l0.1,0v0c0.5-0.3,0.9-0.8,0.9-1.5C95.2,44.5,94.8,44,94.3,43.7z M86.6,31c3,0,4.5,1.5,4.8,4.6H81.2C81.6,32.4,83.3,31,86.6,31z"/>
		<path class="st0" d="M159.1,22.7c-0.1-0.9-0.8-1.7-1.8-1.7c-1,0-1.8,0.8-1.8,1.8v5.4c-1.6-0.4-3.1-0.6-4.7-0.6
			c-6.3,0-9.6,3.4-9.6,9.7c0,8.6,5.1,10.4,9.5,10.4c2.8,0,5.2-0.3,7.1-0.9c0.1,0,0.2,0,0.2-0.1c0.6-0.3,1.1-0.9,1.1-1.6V23
			c0,0,0-0.1,0-0.1S159.1,22.7,159.1,22.7z M145,37.2c0-4.2,1.9-6.2,5.9-6.2c1.6,0,3.1,0.2,4.6,0.7v12.2c-1.5,0.3-3,0.5-4.6,0.5
			C146.8,44.4,145,42.1,145,37.2z"/>
		<path class="st0" d="M136.6,43.7c-0.2-0.1-0.5-0.2-0.7-0.2c-0.2,0-0.3,0-0.4,0.1l0,0c0,0-0.1,0-0.1,0c0,0-0.1,0-0.1,0
			c-1.5,0.5-3.2,0.8-5.1,0.8c-4.3,0-6.4-1.7-6.7-5.4h12.2c0,0,0,0,0,0s0,0,0,0c1,0,1.7-0.8,1.8-1.7c0,0,0,0,0-0.1c0,0,0,0,0,0
			c0-0.1,0-0.2,0-0.3c0-7.6-4.6-9.2-8.4-9.2c-6,0-9.2,3.4-9.2,9.9c0,6.7,3.6,10.3,10.4,10.3c2.2,0,4.2-0.3,5.9-0.9l0.5-0.2l0.1,0
			l0.1,0v0c0.5-0.3,0.9-0.8,0.9-1.5C137.5,44.5,137.1,44,136.6,43.7z M128.9,31c3,0,4.5,1.5,4.8,4.6h-10.3
			C123.9,32.4,125.6,31,128.9,31z"/>
		<path class="st0" d="M179.6,45.1l-5.7-7.4l5.5-7.1l0,0c0.3-0.3,0.5-0.8,0.5-1.2c0-1-0.8-1.8-1.8-1.8c-0.7,0-1.2,0.4-1.5,0.9l0,0
			l-4.9,6.3l-4.9-6.4l0,0c-0.3-0.5-0.8-0.8-1.5-0.8c-1,0-1.8,0.8-1.8,1.8c0,0.5,0.2,0.9,0.5,1.2l0,0.1l5.5,7.1l-5.5,7.1l0,0.1
			c-0.3,0.3-0.5,0.7-0.5,1.2c0,1,0.8,1.8,1.8,1.8c0.6,0,1.2-0.3,1.5-0.8l0.1,0l4.9-6.3l4.9,6.3l0.1,0c0.3,0.5,0.9,0.9,1.5,0.9
			c1,0,1.8-0.8,1.8-1.8C179.8,45.7,179.7,45.4,179.6,45.1L179.6,45.1z"/>
		<path class="st0" d="M114.9,27.6c-0.7,0-1.4,0.5-1.7,1.1l0,0l-5.7,14l-5.7-14l0,0c-0.3-0.7-0.9-1.1-1.7-1.1c-1,0-1.9,0.8-1.9,1.9
			c0,0.2,0.1,0.4,0.1,0.6l0.1,0.2l7.2,16.9c-0.9,1.9-2,3.1-3.4,3.9l0,0c-0.7,0.2-1.2,0.9-1.2,1.6c0,0.2,0.1,0.3,0.1,0.5l0.1,0.3
			c0.3,0.6,0.8,0.9,1.5,0.9c0.2,0,0.4-0.1,0.5-0.1c0.1,0,0.1-0.1,0.2-0.1c2.5-1.1,4.4-3.2,5.7-6.4l7.4-17.6l0,0
			c0.1-0.2,0.1-0.5,0.1-0.7C116.7,28.5,115.9,27.6,114.9,27.6z"/>
	</g>
</g>
</svg>
