<?xml version="1.0" encoding="utf-8"?>
<!-- Generator: Adobe Illustrator 24.3.0, SVG Export Plug-In . SVG Version: 6.00 Build 0)  -->
<svg version="1.1" id="Capa_1" xmlns="http://www.w3.org/2000/svg" xmlns:xlink="http://www.w3.org/1999/xlink" x="0px" y="0px"
	 viewBox="0 0 512 512" style="enable-background:new 0 0 512 512;" xml:space="preserve">
<style type="text/css">
	.st0{fill:#CFCFCF;}
	.st1{font-family:'Lato-Regular';}
	.st2{font-size:22px;}
</style>
<g id="그룹_2375" transform="translate(-1030 -565.812)">
	<text transform="matrix(1 0 0 1 1059.4349 943.4523)" class="st0 st1 st2">Sorry :( The corresponding list does not exist.</text>
	<g id="free-icon-file-2140667" transform="translate(1168.075 565.812)">
		<path id="패스_482" class="st0" d="M195.6,238.2c-10-10-25.1-12.9-38.1-7.5v-61c0-2.5-1-4.9-2.8-6.7l-31.8-31.8
			c-0.7-0.7-1.6-1.4-2.6-1.8h0l-0.1-0.1c-0.1,0-0.2-0.1-0.3-0.1c-1.2-0.5-2.5-0.8-3.7-0.8H39.6c-5.5,0-10,4.5-10,10v156.8
			c0,5.5,4.5,10,10,10h107.9c5.3,0,9.6-4.1,10-9.4c0-0.1,0-0.1,0-0.2v-0.7c17.7,7.4,38.2-0.9,45.6-18.6
			C208.6,263.2,205.6,248.2,195.6,238.2L195.6,238.2z M145.7,163.8h-22.8c-0.4,0-0.8-0.3-0.8-0.8v-22.8L145.7,163.8z M150.6,295.5
			c-0.1,1.6-1.5,2.8-3.1,2.8H39.6c-1.7,0-3.1-1.4-3.1-3.1V138.4c0-1.7,1.4-3.1,3.1-3.1h75.7V163c0,4.2,3.4,7.7,7.7,7.7h27.7v63.9
			c-15.6,11.3-19.1,33-7.9,48.6c2.2,3,4.8,5.7,7.9,7.9L150.6,295.5L150.6,295.5z M190.7,282.6c-10.9,10.9-28.6,10.9-39.5,0
			s-10.9-28.6,0-39.5s28.6-10.9,39.5,0c5.2,5.2,8.2,12.3,8.2,19.8C198.9,270.2,196,277.3,190.7,282.6z"/>
		<path id="패스_483" class="st0" d="M53.9,183.4h48c1.9,0,3.5-1.5,3.5-3.4s-1.5-3.5-3.4-3.5c0,0-0.1,0-0.1,0h-48
			c-1.9,0-3.5,1.5-3.5,3.4c0,1.9,1.5,3.5,3.4,3.5C53.8,183.4,53.8,183.4,53.9,183.4z"/>
		<path id="패스_484" class="st0" d="M113.8,238.6H53.9c-1.9,0-3.5,1.5-3.5,3.4c0,1.9,1.5,3.5,3.4,3.5c0,0,0.1,0,0.1,0h59.9
			c1.9,0,3.5-1.5,3.5-3.4c0-1.9-1.5-3.5-3.4-3.5C113.8,238.6,113.8,238.6,113.8,238.6z"/>
		<path id="패스_485" class="st0" d="M113.8,259.3H53.9c-1.9,0-3.5,1.5-3.5,3.4c0,1.9,1.5,3.5,3.4,3.5c0,0,0.1,0,0.1,0h59.9
			c1.9,0,3.5-1.5,3.5-3.4c0-1.9-1.5-3.5-3.4-3.5C113.8,259.3,113.8,259.3,113.8,259.3z"/>
		<path id="패스_486" class="st0" d="M133.1,217.9H53.9c-1.9,0-3.5,1.5-3.5,3.4c0,1.9,1.5,3.5,3.4,3.5c0,0,0.1,0,0.1,0h79.3
			c1.9,0,3.5-1.5,3.5-3.4c0-1.9-1.5-3.5-3.4-3.5C133.2,217.9,133.1,217.9,133.1,217.9z"/>
		<path id="패스_487" class="st0" d="M53.5,204.3h62.1c1.9,0,3.5-1.5,3.5-3.4s-1.5-3.5-3.4-3.5c0,0-0.1,0-0.1,0H53.5
			c-1.9,0-3.5,1.5-3.5,3.4c0,1.9,1.5,3.5,3.4,3.5C53.4,204.3,53.5,204.3,53.5,204.3z"/>
		<circle id="타원_46" class="st0" cx="133" cy="200.9" r="3.4"/>
		<path id="패스_488" class="st0" d="M183.2,250.7c-1.3-1.3-3.5-1.3-4.9,0c0,0,0,0,0,0l-7.3,7.3l-7.2-7.2c-1.3-1.3-3.5-1.3-4.9,0
			s-1.3,3.5,0,4.9l0,0l7.2,7.2l-7.3,7.3c-1.4,1.3-1.4,3.5-0.1,4.9c1.3,1.4,3.5,1.4,4.9,0.1c0,0,0,0,0.1-0.1l7.3-7.3l7.2,7.2
			c1.3,1.3,3.5,1.3,4.9,0s1.3-3.5,0-4.9l-7.2-7.2l7.3-7.3C184.6,254.2,184.6,252,183.2,250.7C183.2,250.7,183.2,250.7,183.2,250.7z"
			/>
	</g>
</g>
</svg>
