<?xml version="1.0" encoding="utf-8"?>
<!-- Generator: Adobe Illustrator 24.3.0, SVG Export Plug-In . SVG Version: 6.00 Build 0)  -->
<svg version="1.1" id="레이어_1" xmlns="http://www.w3.org/2000/svg" xmlns:xlink="http://www.w3.org/1999/xlink" x="0px"
	 y="0px" viewBox="0 0 660.9 495.6" style="enable-background:new 0 0 660.9 495.6;" xml:space="preserve">
<style type="text/css">
	.st0{fill:#BABABA;}
	.st1{font-family:'Lato-Regular';}
	.st2{font-size:24px;}
	.st3{fill:#0069BB;}
	.st4{fill:#CFCFCF;}
	.st5{font-family:'Lato-Bold';}
	.st6{font-size:40px;}
</style>
<g id="그룹_2379" transform="translate(-743.5 -536.473)">
	<text transform="matrix(1 0 0 1 882.214 983.0404)" class="st0 st1 st2">This is not an applicable resolution.</text>
	<text transform="matrix(1 0 0 1 743.5 1023.0404)" class="st0 st1 st2">Please use a resolution of </text>
	<text transform="matrix(1 0 0 1 1029.8536 1023.0404)" class="st3 st1 st2">1920 or higher and 2160 or lower.</text>
	<g id="그룹_2378" transform="translate(-205 200.473)">
		<g id="error" transform="translate(1097.261 363.434)">
			<path id="패스_489" class="st4" d="M352.1,56.1h-81.1c-3,0-5.3,2.5-5.3,5.4c0,2.9,2.4,5.2,5.3,5.3h81.1c1,0,1.8,0.8,1.8,1.8
				V101H9.8V68.5c0-1,0.8-1.8,1.8-1.8H271c3,0,5.4-2.3,5.4-5.3c0-3-2.3-5.4-5.3-5.4c0,0-0.1,0-0.1,0H11.6c-6.9,0-12.5,5.6-12.5,12.5
				v254.1c0,6.9,5.6,12.5,12.5,12.5l308.5,0c3,0,5.3-2.5,5.3-5.4c0-2.9-2.4-5.2-5.3-5.3l-308.5,0c-1,0-1.8-0.8-1.8-1.8V111.7h344.1
				v69.5c0,3,2.3,5.4,5.3,5.4c3,0,5.4-2.3,5.4-5.3c0,0,0-0.1,0-0.1V68.5C364.5,61.7,359,56.1,352.1,56.1z"/>
			<path id="패스_490" class="st4" d="M359.2,174.4c-3,0-5.4,2.4-5.4,5.4l0,0l0,142.9c0,1-0.8,1.8-1.8,1.8h-30.8
				c-3,0-5.3,2.5-5.3,5.4c0,2.9,2.4,5.2,5.3,5.3h30.8c6.9,0,12.5-5.6,12.5-12.5V179.8C364.5,176.8,362.2,174.4,359.2,174.4
				C359.2,174.4,359.2,174.4,359.2,174.4z"/>
			<path id="패스_491" class="st4" d="M32.9,78.5c-3,0-5.3,2.5-5.3,5.4c0,2.9,2.4,5.2,5.3,5.3H33c3,0,5.3-2.5,5.3-5.4
				C38.3,80.9,35.9,78.6,32.9,78.5L32.9,78.5z"/>
			<path id="패스_492" class="st4" d="M49.1,78.5c-3,0-5.3,2.5-5.3,5.4c0,2.9,2.4,5.2,5.3,5.3h0.1c3,0,5.3-2.5,5.3-5.4
				C54.4,80.9,52.1,78.6,49.1,78.5L49.1,78.5z"/>
			<path id="패스_493" class="st4" d="M65.3,78.5c-3,0-5.4,2.3-5.4,5.3c0,3,2.3,5.4,5.3,5.4c0,0,0.1,0,0.1,0h0.1
				c3,0,5.4-2.3,5.4-5.3c0-3-2.3-5.4-5.3-5.4C65.4,78.5,65.4,78.5,65.3,78.5L65.3,78.5z"/>
			<path id="패스_495" class="st4" d="M239,184.5c0-31.6-25.6-57.2-57.2-57.2c-31.6,0-57.2,25.6-57.2,57.2
				c0,31.6,25.6,57.2,57.2,57.2C213.4,241.7,238.9,216.1,239,184.5z M181.8,231c-25.7,0-46.5-20.8-46.5-46.5s20.8-46.5,46.5-46.5
				s46.5,20.8,46.5,46.5l0,0C228.2,210.2,207.5,231,181.8,231L181.8,231z"/>
			<path id="패스_497" class="st4" d="M233.4,277.7c0-3-2.4-5.4-5.4-5.4l0,0H94.2c-3,0-5.4,2.3-5.4,5.3c0,3,2.3,5.4,5.3,5.4
				c0,0,0.1,0,0.1,0H228C231,283,233.4,280.6,233.4,277.7z"/>
			<path id="패스_498" class="st4" d="M269.4,272.3h-19.6c-3,0-5.4,2.3-5.4,5.3c0,3,2.3,5.4,5.3,5.4c0,0,0.1,0,0.1,0h19.6
				c3,0,5.3-2.5,5.3-5.4C274.6,274.7,272.3,272.4,269.4,272.3L269.4,272.3z"/>
			<path id="패스_500" class="st4" d="M97,299.3h169.7c4.5,0,8.1-2.4,8.1-5.4s-3.6-5.4-8.1-5.4H97c-4.5,0-8.1,2.4-8.1,5.4
				S92.5,299.3,97,299.3z"/>
			<path id="패스_501" class="st4" d="M201.7,164.7c-2.1-2.1-5.5-2.1-7.6,0c0,0,0,0,0,0L181.8,177l-12.3-12.3
				c-2.1-2.1-5.5-2.1-7.6,0s-2.1,5.5,0,7.6l12.3,12.3L162,196.8c-2.1,2.1-2.1,5.5,0,7.6s5.5,2.1,7.6,0l12.3-12.3l12.3,12.3
				c2.1,2.1,5.5,2.1,7.6,0c2.1-2.1,2.1-5.5,0-7.6l0,0l-12.3-12.3l12.3-12.3C203.7,170.2,203.7,166.8,201.7,164.7
				C201.7,164.7,201.7,164.7,201.7,164.7z"/>
		</g>
		<text transform="matrix(1 0 0 1 1090.574 370.5404)" class="st4 st5 st6">Incorrect resolution!</text>
	</g>
</g>
</svg>
